<mxfile host="65bd71144e">
    <diagram id="bOp3JfBVASchhBaP-Dqm" name="Page-1">
        <mxGraphModel dx="836" dy="607" grid="1" gridSize="10" guides="1" tooltips="1" connect="1" arrows="1" fold="1" page="1" pageScale="1" pageWidth="850" pageHeight="1100" math="0" shadow="0">
            <root>
                <mxCell id="0"/>
                <mxCell id="1" parent="0"/>
                <mxCell id="3" value="" style="rounded=0;whiteSpace=wrap;html=1;" parent="1" vertex="1">
                    <mxGeometry x="310" y="120" width="760" height="440" as="geometry"/>
                </mxCell>
                <mxCell id="5" value="" style="rounded=0;whiteSpace=wrap;html=1;" parent="1" vertex="1">
                    <mxGeometry x="310" y="120" width="760" height="30" as="geometry"/>
                </mxCell>
                <mxCell id="10" value="" style="rounded=0;whiteSpace=wrap;html=1;" parent="1" vertex="1">
                    <mxGeometry x="310" y="150" width="100" height="410" as="geometry"/>
                </mxCell>
                <mxCell id="11" value="User ou login / sigunup" style="rounded=0;whiteSpace=wrap;html=1;" parent="1" vertex="1">
                    <mxGeometry x="970" y="125" width="90" height="20" as="geometry"/>
                </mxCell>
                <mxCell id="13" value="Logo" style="rounded=0;whiteSpace=wrap;html=1;" parent="1" vertex="1">
                    <mxGeometry x="315" y="125" width="90" height="20" as="geometry"/>
                </mxCell>
                <mxCell id="15" value="Início" style="rounded=0;whiteSpace=wrap;html=1;fillColor=#0050ef;fontColor=#ffffff;strokeColor=#001DBC;" parent="1" vertex="1">
                    <mxGeometry x="315" y="170" width="90" height="20" as="geometry"/>
                </mxCell>
                <mxCell id="16" value="Postagens" style="rounded=0;whiteSpace=wrap;html=1;" parent="1" vertex="1">
                    <mxGeometry x="315" y="200" width="90" height="20" as="geometry"/>
                </mxCell>
                <mxCell id="17" value="Usuários" style="rounded=0;whiteSpace=wrap;html=1;" parent="1" vertex="1">
                    <mxGeometry x="315" y="230" width="90" height="20" as="geometry"/>
                </mxCell>
                <mxCell id="21" value="Pinturas" style="rounded=0;whiteSpace=wrap;html=1;" parent="1" vertex="1">
                    <mxGeometry x="430" y="180" width="140" height="30" as="geometry"/>
                </mxCell>
                <mxCell id="23" value="Pinturas" style="rounded=0;whiteSpace=wrap;html=1;fillColor=#0050ef;fontColor=#ffffff;strokeColor=#001DBC;" parent="1" vertex="1">
                    <mxGeometry x="430" y="240" width="90" height="20" as="geometry"/>
                </mxCell>
                <mxCell id="24" value="Postagens" style="rounded=0;whiteSpace=wrap;html=1;" parent="1" vertex="1">
                    <mxGeometry x="540" y="240" width="90" height="20" as="geometry"/>
                </mxCell>
                <mxCell id="25" value="+" style="rounded=0;whiteSpace=wrap;html=1;fontSize=34;" parent="1" vertex="1">
                    <mxGeometry x="430" y="280" width="90" height="120" as="geometry"/>
                </mxCell>
                <mxCell id="26" value="" style="rounded=0;whiteSpace=wrap;html=1;fontSize=34;" parent="1" vertex="1">
                    <mxGeometry x="540" y="280" width="90" height="120" as="geometry"/>
                </mxCell>
                <mxCell id="28" value="Pintura" style="rounded=0;whiteSpace=wrap;html=1;fontSize=14;" parent="1" vertex="1">
                    <mxGeometry x="540" y="410" width="90" height="20" as="geometry"/>
                </mxCell>
                <mxCell id="29" value="" style="rounded=0;whiteSpace=wrap;html=1;fontSize=14;" parent="1" vertex="1">
                    <mxGeometry x="540" y="280" width="90" height="10" as="geometry"/>
                </mxCell>
                <mxCell id="31" value="" style="rounded=0;whiteSpace=wrap;html=1;fontSize=34;" parent="1" vertex="1">
                    <mxGeometry x="645" y="280" width="90" height="120" as="geometry"/>
                </mxCell>
                <mxCell id="32" value="Pintura" style="rounded=0;whiteSpace=wrap;html=1;fontSize=14;" parent="1" vertex="1">
                    <mxGeometry x="645" y="410" width="90" height="20" as="geometry"/>
                </mxCell>
                <mxCell id="33" value="" style="rounded=0;whiteSpace=wrap;html=1;fontSize=14;" parent="1" vertex="1">
                    <mxGeometry x="645" y="280" width="90" height="10" as="geometry"/>
                </mxCell>
                <mxCell id="34" value="Gerenciar" style="rounded=0;whiteSpace=wrap;html=1;" parent="1" vertex="1">
                    <mxGeometry x="315" y="260" width="90" height="20" as="geometry"/>
                </mxCell>
                <mxCell id="37" value="Pesquisar" style="rounded=0;whiteSpace=wrap;html=1;" parent="1" vertex="1">
                    <mxGeometry x="910" y="240" width="120" height="20" as="geometry"/>
                </mxCell>
                <mxCell id="38" value="Nova pintura" style="rounded=0;whiteSpace=wrap;html=1;fontSize=14;" parent="1" vertex="1">
                    <mxGeometry x="430" y="410" width="90" height="20" as="geometry"/>
                </mxCell>
                <mxCell id="39" value="Promover" style="rounded=0;whiteSpace=wrap;html=1;" parent="1" vertex="1">
                    <mxGeometry x="315" y="290" width="90" height="20" as="geometry"/>
                </mxCell>
                <mxCell id="40" value="" style="rounded=0;whiteSpace=wrap;html=1;" vertex="1" parent="1">
                    <mxGeometry x="310" y="600" width="290" height="540" as="geometry"/>
                </mxCell>
                <mxCell id="41" value="" style="rounded=0;whiteSpace=wrap;html=1;" vertex="1" parent="1">
                    <mxGeometry x="310" y="600" width="290" height="30" as="geometry"/>
                </mxCell>
                <mxCell id="42" value="User ou login / sigunup" style="rounded=0;whiteSpace=wrap;html=1;" vertex="1" parent="1">
                    <mxGeometry x="500" y="605" width="90" height="20" as="geometry"/>
                </mxCell>
                <mxCell id="43" value="Logo" style="rounded=0;whiteSpace=wrap;html=1;" vertex="1" parent="1">
                    <mxGeometry x="315" y="605" width="90" height="20" as="geometry"/>
                </mxCell>
                <mxCell id="44" value="" style="rounded=0;whiteSpace=wrap;html=1;" vertex="1" parent="1">
                    <mxGeometry x="310" y="630" width="290" height="30" as="geometry"/>
                </mxCell>
                <mxCell id="45" value="Link selecionado" style="rounded=0;whiteSpace=wrap;html=1;" vertex="1" parent="1">
                    <mxGeometry x="315" y="635" width="80" height="20" as="geometry"/>
                </mxCell>
                <mxCell id="46" value="menu" style="rounded=0;whiteSpace=wrap;html=1;" vertex="1" parent="1">
                    <mxGeometry x="520" y="635" width="70" height="20" as="geometry"/>
                </mxCell>
                <mxCell id="47" value="Pinturas" style="rounded=0;whiteSpace=wrap;html=1;" vertex="1" parent="1">
                    <mxGeometry x="320" y="680" width="140" height="30" as="geometry"/>
                </mxCell>
                <mxCell id="48" value="Pinturas" style="rounded=0;whiteSpace=wrap;html=1;fillColor=#0050ef;fontColor=#ffffff;strokeColor=#001DBC;" vertex="1" parent="1">
                    <mxGeometry x="315" y="740" width="70" height="20" as="geometry"/>
                </mxCell>
                <mxCell id="49" value="Postagens" style="rounded=0;whiteSpace=wrap;html=1;" vertex="1" parent="1">
                    <mxGeometry x="395" y="740" width="70" height="20" as="geometry"/>
                </mxCell>
                <mxCell id="50" value="Pesquisar" style="rounded=0;whiteSpace=wrap;html=1;" vertex="1" parent="1">
                    <mxGeometry x="505" y="740" width="85" height="20" as="geometry"/>
                </mxCell>
                <mxCell id="51" value="+" style="rounded=0;whiteSpace=wrap;html=1;fontSize=34;" vertex="1" parent="1">
                    <mxGeometry x="345" y="780" width="90" height="120" as="geometry"/>
                </mxCell>
                <mxCell id="52" value="" style="rounded=0;whiteSpace=wrap;html=1;fontSize=34;" vertex="1" parent="1">
                    <mxGeometry x="480" y="780" width="90" height="120" as="geometry"/>
                </mxCell>
                <mxCell id="53" value="Pintura" style="rounded=0;whiteSpace=wrap;html=1;fontSize=14;" vertex="1" parent="1">
                    <mxGeometry x="480" y="910" width="90" height="20" as="geometry"/>
                </mxCell>
                <mxCell id="54" value="" style="rounded=0;whiteSpace=wrap;html=1;fontSize=14;" vertex="1" parent="1">
                    <mxGeometry x="480" y="780" width="90" height="10" as="geometry"/>
                </mxCell>
                <mxCell id="55" value="" style="rounded=0;whiteSpace=wrap;html=1;fontSize=34;" vertex="1" parent="1">
                    <mxGeometry x="345" y="950" width="90" height="120" as="geometry"/>
                </mxCell>
                <mxCell id="56" value="Pintura" style="rounded=0;whiteSpace=wrap;html=1;fontSize=14;" vertex="1" parent="1">
                    <mxGeometry x="345" y="1080" width="90" height="20" as="geometry"/>
                </mxCell>
                <mxCell id="57" value="" style="rounded=0;whiteSpace=wrap;html=1;fontSize=14;" vertex="1" parent="1">
                    <mxGeometry x="345" y="950" width="90" height="10" as="geometry"/>
                </mxCell>
                <mxCell id="58" value="Nova pintura" style="rounded=0;whiteSpace=wrap;html=1;fontSize=14;" vertex="1" parent="1">
                    <mxGeometry x="345" y="910" width="90" height="20" as="geometry"/>
                </mxCell>
            </root>
        </mxGraphModel>
    </diagram>
</mxfile>